<svg width="65" height="33" viewBox="0 0 65 33" fill="none" xmlns="http://www.w3.org/2000/svg">
<path d="M65 31.1991C64.0539 31.5036 63.0093 31.503 62.0637 31.1973C61.1181 30.8917 60.3369 30.3022 59.8679 29.5402C56.9224 25.7924 53.6697 22.2135 50.5435 18.5578L49.1882 17.0218C45.4657 21.2612 41.7431 25.3316 38.3458 29.5556C37.9032 30.2838 37.1643 30.8504 36.2667 31.1499C35.3691 31.4495 34.374 31.4615 33.4668 31.1837L47.4354 15.2554L34.4426 0.863029C35.3778 0.575981 36.401 0.572045 37.3393 0.851884C38.2776 1.13172 39.0735 1.67819 39.5927 2.39903C42.6105 6.14688 45.9536 9.72577 49.2786 13.5197C52.6216 9.75649 55.9285 6.16224 59.0186 2.44512C59.4637 1.72874 60.203 1.17642 61.096 0.893205C61.9889 0.609992 62.9732 0.615655 63.8616 0.909113L58.8198 6.59233C56.561 9.12673 54.3383 11.6765 51.9892 14.1495C51.7999 14.2935 51.6484 14.4699 51.5448 14.6671C51.4411 14.8643 51.3875 15.0778 51.3875 15.2938C51.3875 15.5098 51.4411 15.7233 51.5448 15.9205C51.6484 16.1177 51.7999 16.294 51.9892 16.4381C56.308 21.3072 60.5908 26.1917 65 31.1991V31.1991Z" fill="black"/>
<path d="M0 15.0557C0.379483 13.5197 0.614401 11.8455 1.13845 10.2787C4.26467 0.832318 17.0045 -3.09984 25.7687 2.75232C30.9008 6.17761 32.1838 11.0314 31.9308 16.4995H3.01779C2.54796 26.2685 10.8424 32.1668 21.4498 29.1562C23.1705 28.633 24.7108 27.7539 25.9318 26.5981C27.1527 25.4423 28.0158 24.0463 28.4432 22.536C29.0033 21 29.9069 20.7389 31.6236 21.1844C31.3408 23.0543 30.563 24.8454 29.3486 26.423C28.1342 28.0007 26.5148 29.3238 24.6122 30.2928C21.4686 31.754 17.862 32.3329 14.308 31.9467C10.7541 31.5604 7.4348 30.2289 4.82486 28.1424C2.24285 25.6748 0.681632 22.5568 0.379483 19.2643C0.379483 18.7421 0.144565 18.2199 0.0180706 17.7283C0.00602352 16.817 0 15.9261 0 15.0557ZM3.05393 14.3952H29.2021C29.0395 7.31425 23.7809 2.29152 16.7695 2.24544C8.96303 2.15328 3.37921 7.06849 3.03586 14.3645L3.05393 14.3952Z" fill="black"/>
</svg>
