<svg width="82" height="82" viewBox="0 0 82 82" fill="none" xmlns="http://www.w3.org/2000/svg">
<path d="M8.83385 60.3438L11.7809 62.0453L44.6116 5.18242L41.6646 3.48092L8.83385 60.3438Z" fill="#E535AB"/>
<path d="M73.8205 55.801H8.15901V59.204H73.8205V55.801Z" fill="#E535AB"/>
<path d="M9.45828 57.7128L42.3013 76.6753L44.0028 73.7283L11.1598 54.7658L9.45828 57.7128Z" fill="#E535AB"/>
<path d="M37.989 8.29159L70.8321 27.2541L72.5336 24.3071L39.6905 5.34459L37.989 8.29159Z" fill="#E535AB"/>
<path d="M9.46737 24.2941L11.1689 27.2411L44.0119 8.27859L42.3104 5.33159L9.46737 24.2941Z" fill="#E535AB"/>
<path d="M37.3957 5.18304L70.2265 62.0459L73.1735 60.3444L40.3427 3.48154L37.3957 5.18304Z" fill="#E535AB"/>
<path d="M14.1655 22.0375H10.7625V59.9625H14.1655V22.0375Z" fill="#E535AB"/>
<path d="M71.2375 22.0375H67.8345V59.9625H71.2375V22.0375Z" fill="#E535AB"/>
<path d="M40.2357 72.6606L41.722 75.2348L70.2866 58.7426L68.8003 56.1684L40.2357 72.6606Z" fill="#E535AB"/>
<path d="M75.7475 61.0695C73.7795 64.493 69.3925 65.6615 65.969 63.6935C62.5455 61.7255 61.377 57.3385 63.345 53.915C65.313 50.4915 69.7 49.323 73.1235 51.291C76.5675 53.2795 77.736 57.646 75.7475 61.0695Z" fill="#E535AB"/>
<path d="M18.6345 28.085C16.6665 31.5085 12.2795 32.677 8.856 30.709C5.4325 28.741 4.264 24.354 6.232 20.9305C8.2 17.507 12.587 16.3385 16.0105 18.3065C19.434 20.295 20.6025 24.6615 18.6345 28.085Z" fill="#E535AB"/>
<path d="M6.25249 61.0695C4.28449 57.646 5.45299 53.2795 8.87649 51.291C12.3 49.323 16.6665 50.4915 18.655 53.915C20.623 57.3385 19.4545 61.705 16.031 63.6935C12.587 65.6615 8.22049 64.493 6.25249 61.0695Z" fill="#E535AB"/>
<path d="M63.3655 28.085C61.3975 24.6615 62.566 20.295 65.9895 18.3065C69.413 16.3385 73.7795 17.507 75.768 20.9305C77.736 24.354 76.5675 28.7205 73.144 30.709C69.7205 32.677 65.3335 31.5085 63.3655 28.085Z" fill="#E535AB"/>
<path d="M41 81.139C37.0435 81.139 33.8455 77.941 33.8455 73.9845C33.8455 70.028 37.0435 66.83 41 66.83C44.9565 66.83 48.1545 70.028 48.1545 73.9845C48.1545 77.9205 44.9565 81.139 41 81.139Z" fill="#E535AB"/>
<path d="M41 15.17C37.0435 15.17 33.8455 11.972 33.8455 8.01549C33.8455 4.05899 37.0435 0.860992 41 0.860992C44.9565 0.860992 48.1545 4.05899 48.1545 8.01549C48.1545 11.972 44.9565 15.17 41 15.17Z" fill="#E535AB"/>
</svg>
