<svg width="79" height="71" viewBox="0 0 79 71" fill="none" xmlns="http://www.w3.org/2000/svg">
<path d="M79 35.1845C79 29.9511 72.4462 24.9914 62.3981 21.9158C64.7169 11.6745 63.6863 3.5265 59.1453 0.917855C58.0987 0.305951 56.8748 0.0161025 55.5383 0.0161025V3.60701C56.279 3.60701 56.8749 3.75194 57.374 4.02568C59.564 5.2817 60.5141 10.0642 59.7733 16.2155C59.5962 17.7291 59.3064 19.3233 58.9521 20.9497C55.796 20.1767 52.35 19.5809 48.7269 19.1945C46.553 16.2155 44.2986 13.5102 42.0281 11.1431C47.2776 6.26396 52.2051 3.59091 55.5544 3.59091V0C51.1262 0 45.3292 3.15614 39.4678 8.63107C33.6064 3.18834 27.8094 0.0644112 23.3812 0.0644112V3.65532C26.7144 3.65532 31.658 6.31227 36.9075 11.1592C34.6531 13.5263 32.3987 16.2155 30.257 19.1945C26.6178 19.5809 23.1718 20.1767 20.0157 20.9658C19.6453 19.3555 19.3716 17.7935 19.1784 16.296C18.4215 10.1447 19.3555 5.36221 21.5294 4.09009C22.0124 3.80025 22.6404 3.67142 23.3812 3.67142V0.0805137C22.0285 0.0805137 20.8047 0.370363 19.7419 0.982266C15.2171 3.59091 14.2026 11.7228 16.5375 21.9319C6.52161 25.0236 0 29.9672 0 35.1845C0 40.4179 6.55381 45.3775 16.6019 48.4531C14.2831 58.6945 15.3137 66.8424 19.8547 69.4511C20.9013 70.063 22.1252 70.3528 23.4778 70.3528C27.906 70.3528 33.703 67.1967 39.5644 61.7218C45.4258 67.1645 51.2228 70.2884 55.651 70.2884C57.0037 70.2884 58.2275 69.9986 59.2903 69.3867C63.8151 66.778 64.8296 58.6462 62.4947 48.437C72.4784 45.3614 79 40.4018 79 35.1845ZM58.0342 24.4439C57.4384 26.5212 56.6977 28.6629 55.8604 30.8045C55.2002 29.5163 54.5077 28.2281 53.7509 26.9399C53.0102 25.6517 52.2212 24.3956 51.4321 23.1718C53.7187 23.51 55.9248 23.9287 58.0342 24.4439ZM50.6592 41.5934C49.4032 43.7672 48.115 45.8284 46.7784 47.7446C44.3791 47.9539 41.9476 48.0667 39.5 48.0667C37.0685 48.0667 34.637 47.9539 32.2538 47.7607C30.9172 45.8445 29.6129 43.7994 28.3569 41.6417C27.1331 39.5322 26.022 37.3905 25.0075 35.2328C26.0059 33.075 27.1331 30.9172 28.3408 28.8078C29.5968 26.6339 30.885 24.5728 32.2216 22.6565C34.6209 22.4472 37.0524 22.3345 39.5 22.3345C41.9315 22.3345 44.363 22.4472 46.7462 22.6404C48.0828 24.5567 49.3871 26.6017 50.6431 28.7595C51.8669 30.8689 52.978 33.0106 53.9925 35.1684C52.978 37.3261 51.8669 39.4839 50.6592 41.5934ZM55.8604 39.5C56.7299 41.6578 57.4707 43.8155 58.0826 45.9089C55.9731 46.4242 53.7509 46.859 51.4482 47.1971C52.2373 45.9572 53.0263 44.6851 53.767 43.3808C54.5078 42.0925 55.2002 40.7882 55.8604 39.5ZM39.5322 56.6816C38.0347 55.1358 36.5371 53.4128 35.0556 51.5287C36.5049 51.5932 37.9863 51.6415 39.4839 51.6415C40.9976 51.6415 42.4951 51.6093 43.9605 51.5287C42.5112 53.4128 41.0137 55.1358 39.5322 56.6816ZM27.5518 47.1971C25.2652 46.859 23.0591 46.4403 20.9497 45.925C21.5455 43.8477 22.2862 41.7061 23.1235 39.5644C23.7837 40.8526 24.4762 42.1409 25.233 43.4291C25.9898 44.7173 26.7627 45.9733 27.5518 47.1971ZM39.4517 13.6873C40.9493 15.2332 42.4468 16.9562 43.9283 18.8402C42.479 18.7758 40.9976 18.7275 39.5 18.7275C37.9863 18.7275 36.4888 18.7597 35.0234 18.8402C36.4727 16.9562 37.9702 15.2332 39.4517 13.6873ZM27.5357 23.1718C26.7466 24.4117 25.9576 25.6839 25.2169 26.9882C24.4762 28.2764 23.7837 29.5646 23.1235 30.8528C22.254 28.6951 21.5133 26.5373 20.9013 24.4439C23.0108 23.9448 25.233 23.51 27.5357 23.1718ZM12.9627 43.3325C7.26233 40.9009 3.57481 37.7126 3.57481 35.1845C3.57481 32.6563 7.26233 29.4519 12.9627 27.0365C14.3475 26.4407 15.8612 25.9093 17.4232 25.4101C18.341 28.5662 19.5487 31.8512 21.0463 35.2167C19.5648 38.566 18.3732 41.8349 17.4715 44.9749C15.8773 44.4757 14.3636 43.9283 12.9627 43.3325ZM21.626 66.3433C19.436 65.0872 18.4859 60.3047 19.2267 54.1535C19.4038 52.6398 19.6936 51.0457 20.0479 49.4193C23.204 50.1922 26.65 50.788 30.2731 51.1745C32.447 54.1535 34.7014 56.8587 36.9719 59.2258C31.7224 64.105 26.7949 66.778 23.4456 66.778C22.721 66.7619 22.1091 66.617 21.626 66.3433ZM59.8217 54.073C60.5785 60.2242 59.6445 65.0067 57.4706 66.2788C56.9876 66.5687 56.3596 66.6975 55.6188 66.6975C52.2856 66.6975 47.342 64.0406 42.0925 59.1936C44.3469 56.8265 46.6013 54.1374 48.743 51.1584C52.3822 50.7719 55.8282 50.1761 58.9843 49.3871C59.3547 51.0135 59.6445 52.5754 59.8217 54.073ZM66.0212 43.3325C64.6364 43.9283 63.1227 44.4596 61.5607 44.9588C60.6429 41.8027 59.4352 38.5177 57.9376 35.1523C59.4191 31.8029 60.6107 28.534 61.5124 25.394C63.1066 25.8932 64.6203 26.4407 66.0373 27.0365C71.7377 29.468 75.4252 32.6563 75.4252 35.1845C75.4091 37.7126 71.7216 40.917 66.0212 43.3325Z" fill="#61DAFB"/>
<path d="M39.4839 42.5434C43.5481 42.5434 46.8428 39.2487 46.8428 35.1845C46.8428 31.1202 43.5481 27.8255 39.4839 27.8255C35.4196 27.8255 32.1249 31.1202 32.1249 35.1845C32.1249 39.2487 35.4196 42.5434 39.4839 42.5434Z" fill="#61DAFB"/>
</svg>
