<svg width="89" height="54" viewBox="0 0 89 54" fill="none" xmlns="http://www.w3.org/2000/svg">
<path fill-rule="evenodd" clip-rule="evenodd" d="M44.5 0C32.6333 0 25.2167 5.89091 22.25 17.6727C26.7 11.7818 31.8917 9.57273 37.825 11.0455C41.2103 11.8849 43.6298 14.3247 46.308 17.0231C50.6707 21.42 55.7206 26.5091 66.75 26.5091C78.6167 26.5091 86.0333 20.6182 89 8.83636C84.55 14.7273 79.3583 16.9364 73.425 15.4636C70.0397 14.6242 67.6202 12.1844 64.942 9.486C60.5793 5.08909 55.5294 0 44.5 0ZM22.25 26.5091C10.3833 26.5091 2.96667 32.4 0 44.1818C4.45 38.2909 9.64167 36.0818 15.575 37.5545C18.9603 38.3956 21.3798 40.8338 24.058 43.5322C28.4207 47.9291 33.4706 53.0182 44.5 53.0182C56.3667 53.0182 63.7833 47.1273 66.75 35.3455C62.3 41.2364 57.1083 43.4454 51.175 41.9727C47.7897 41.1333 45.3702 38.6935 42.692 35.9951C38.3293 31.5982 33.2794 26.5091 22.25 26.5091Z" fill="#06B6D4"/>
</svg>
