<svg width="95" height="57" viewBox="0 0 95 57" fill="none" xmlns="http://www.w3.org/2000/svg">
<g clip-path="url(#clip0)">
<path d="M22.4614 15.0002H40.3411V16.4168H24.1004V27.0782H39.3726V28.4948H24.1004V40.2H40.5274V41.6166H22.4614V15.0002ZM41.9428 15.0002H43.8426L52.2609 26.7054L60.8655 15.0002L72.5692 0.131836L53.3412 27.9356L63.2495 41.6166H61.2753L52.2609 29.1658L43.2093 41.6166H41.2724L51.2552 27.9356L41.9428 15.0002ZM63.9572 16.4168V15.0002H84.3327V16.4168H74.9458V41.6166H73.3068V16.4168H63.9572Z" fill="black"/>
<path d="M0.0931244 15.0002H2.14184L30.3925 57.1393L18.7178 41.6166L1.8066 17.0132L1.7321 41.6166H0.0931244V15.0002Z" fill="black"/>
<path d="M84.1675 39.7725C84.5064 39.7725 84.7535 39.5139 84.7535 39.1797C84.7535 38.8455 84.5064 38.5869 84.1675 38.5869C83.8327 38.5869 83.5815 38.8455 83.5815 39.1797C83.5815 39.5139 83.8327 39.7725 84.1675 39.7725ZM85.778 38.2128C85.778 39.1996 86.4916 39.8442 87.532 39.8442C88.6402 39.8442 89.3099 39.1797 89.3099 38.0258V33.9635H88.417V38.0219C88.417 38.6625 88.0941 39.0046 87.524 39.0046C87.0138 39.0046 86.667 38.6863 86.655 38.2128H85.778ZM90.4779 38.1611C90.5417 39.1877 91.3988 39.8442 92.6744 39.8442C94.0378 39.8442 94.8908 39.1558 94.8908 38.0577C94.8908 37.1943 94.4045 36.7168 93.2245 36.4423L92.5907 36.2871C91.8413 36.112 91.5383 35.8773 91.5383 35.4675C91.5383 34.9502 92.0087 34.612 92.7143 34.612C93.384 34.612 93.8464 34.9423 93.9301 35.4715H94.7992C94.7473 34.5046 93.8942 33.8242 92.7262 33.8242C91.4705 33.8242 90.6334 34.5046 90.6334 35.5272C90.6334 36.3707 91.1078 36.872 92.1482 37.1147L92.8897 37.2938C93.6511 37.4728 93.9859 37.7354 93.9859 38.1731C93.9859 38.6823 93.4597 39.0524 92.7422 39.0524C91.9728 39.0524 91.4386 38.7062 91.3629 38.1611H90.4779Z" fill="black"/>
</g>
<defs>
<clipPath id="clip0">
<rect width="95" height="57" fill="white"/>
</clipPath>
</defs>
</svg>
